<svg width="31" height="31" viewBox="0 0 31 31" fill="none" xmlns="http://www.w3.org/2000/svg">
<g id="devicon:behance" clip-path="url(#clip0_2059_1418)">
<path id="Vector" d="M26.4074 1.29108H4.25901C2.37045 1.29108 0.839478 2.82205 0.839478 4.71061V26.8567C0.839478 28.7453 2.37045 30.2762 4.25901 30.2762H26.4074C28.296 30.2762 29.827 28.7453 29.827 26.8567V4.71061C29.827 2.82205 28.296 1.29108 26.4074 1.29108Z" fill="url(#paint0_linear_2059_1418)"/>
<path id="Vector_2" d="M12.6684 14.913C12.6684 14.913 15.1293 14.7302 15.1293 11.845C15.1293 8.95986 13.116 7.55127 10.566 7.55127H2.17542V23.6763H10.566C10.566 23.6763 15.6871 23.838 15.6871 18.9161C15.6871 18.9161 15.9121 14.913 12.6684 14.913ZM5.87151 10.4177H10.559C10.559 10.4177 11.7004 10.4177 11.7004 12.0958C11.7004 13.7739 11.0301 14.0177 10.2684 14.0177H5.87385L5.87151 10.4177ZM10.3481 20.8099H5.87385V16.5021H10.5614C10.5614 16.5021 12.2606 16.4786 12.2606 18.7169C12.2653 20.5802 11.0231 20.7911 10.3504 20.8099H10.3481ZM22.5192 11.6552C16.3176 11.6552 16.3246 17.8497 16.3246 17.8497C16.3246 17.8497 15.8981 24.0138 22.5192 24.0138C22.5192 24.0138 28.0364 24.3278 28.0364 19.7271H25.2004C25.2004 19.7271 25.2942 21.4614 22.6223 21.4614C22.6223 21.4614 19.784 21.6513 19.784 18.6489H28.1395C28.1395 18.6489 29.0465 11.6552 22.5192 11.6552ZM25.041 16.5021H19.7442C19.7442 16.5021 20.091 14.0177 22.5825 14.0177C25.0739 14.0177 25.041 16.5021 25.041 16.5021ZM19.0504 8.50283H25.702V10.488H19.0504V8.50283Z" fill="white"/>
</g>
<defs>
<linearGradient id="paint0_linear_2059_1418" x1="15.3332" y1="1.29108" x2="15.3332" y2="30.2786" gradientUnits="userSpaceOnUse">
<stop stop-color="#005CFF"/>
<stop offset="1" stop-color="#0047AD"/>
</linearGradient>
<clipPath id="clip0_2059_1418">
<rect width="30" height="30" fill="white" transform="translate(0.333252 0.784851)"/>
</clipPath>
</defs>
</svg>
