<svg width="30" height="31" viewBox="0 0 30 31" fill="none" xmlns="http://www.w3.org/2000/svg">
<g id="emojione-v1:flag-for-brazil">
<path id="Vector" d="M30 20.9411C30 23.7888 28.4189 26.0974 25.3125 26.0974H4.6875C1.58109 26.0974 0 23.7888 0 20.9411V10.6286C0 7.78094 1.58109 5.47235 4.6875 5.47235H25.3125C28.4189 5.47235 30 7.78094 30 10.6286V20.9411Z" fill="#128807"/>
<path id="Vector_2" d="M26.7844 16.1551L15.0703 24.3864L3.35577 16.1551L15.0703 7.92389L26.7844 16.1551Z" fill="#F9CB38"/>
<g id="Group">
<path id="Vector_3" fill-rule="evenodd" clip-rule="evenodd" d="M19.6922 17.5886C19.1588 19.4012 17.4895 20.7812 15.5995 20.9687C13.0744 21.2214 10.8652 19.6164 10.328 17.1353C10.169 16.4062 10.1893 15.6494 10.387 14.9298C10.4606 14.8502 10.5624 14.8309 10.6636 14.8169C11.4022 14.7143 12.1488 14.6818 12.8934 14.7198C13.688 14.7648 14.4759 14.875 15.2419 15.0916C16.028 15.3142 16.7892 15.6048 17.5078 15.9911C18.0486 16.2784 18.5651 16.6092 19.0524 16.9802C19.2174 17.1081 19.3856 17.2337 19.5441 17.3702C19.6149 17.4311 19.6706 17.4967 19.6922 17.5886Z" fill="#002776"/>
<path id="Vector_4" fill-rule="evenodd" clip-rule="evenodd" d="M10.6519 14.1963C11.257 12.8439 12.2775 11.9435 13.688 11.5206C16.5286 10.6689 19.4428 12.5463 19.8652 15.4741C19.9308 15.9264 19.9336 16.3802 19.8642 16.8335C19.7925 16.8602 19.7391 16.8222 19.6899 16.7814C19.1751 16.3607 18.6258 15.9841 18.0478 15.6555C17.6028 15.4029 17.1404 15.1824 16.6641 14.9955C16.5797 14.9622 16.4738 14.9449 16.4447 14.8319C16.4752 14.7775 16.5136 14.7302 16.5595 14.6861C16.5759 14.6692 16.5999 14.6528 16.5778 14.6247C16.5703 14.6158 16.5549 14.6158 16.5417 14.6172C16.5066 14.621 16.5113 14.6453 16.5127 14.6711C16.5155 14.755 16.4667 14.8089 16.4025 14.852C16.2886 14.8778 16.1794 14.8436 16.087 14.7944C15.8227 14.6556 15.5302 14.6083 15.2503 14.531C14.8139 14.4124 14.3658 14.3453 13.9186 14.2755C13.5617 14.2185 13.2024 14.1775 12.8419 14.1527C12.5138 14.1297 12.1795 14.133 11.8491 14.1555C11.4886 14.1808 11.1272 14.2061 10.7686 14.2492C10.7461 14.2525 10.7232 14.2493 10.7025 14.2399C10.6818 14.2305 10.6642 14.2153 10.6519 14.1963Z" fill="#002776"/>
<path id="Vector_5" fill-rule="evenodd" clip-rule="evenodd" d="M16.4484 14.8028C16.4466 14.86 16.4977 14.8525 16.5286 14.8647C17.7391 15.3356 18.8648 16.0006 19.8614 16.8335C19.8326 17.0906 19.7757 17.3439 19.6917 17.5886C19.1053 17.1021 18.5048 16.6385 17.8406 16.2597C15.7411 15.0639 13.493 14.59 11.0897 14.8441C10.8553 14.868 10.6209 14.8999 10.3866 14.9285C10.447 14.6749 10.5239 14.426 10.65 14.1953C12.4045 13.9586 14.1286 14.0931 15.8203 14.6167C16.0303 14.6819 16.2305 14.7869 16.4545 14.8066L16.4484 14.8014" fill="#FEFEFE"/>
<path id="Vector_6" fill-rule="evenodd" clip-rule="evenodd" d="M18.6328 17.8239C18.4917 17.8089 18.645 17.9819 18.5025 17.9782C18.3783 17.9763 18.3717 17.8769 18.3108 17.8216C18.3577 17.7729 18.4406 17.763 18.4669 17.6871C18.4847 17.7672 18.5602 17.7841 18.6328 17.8239Z" fill="#D9DFEA"/>
<path id="Vector_7" fill-rule="evenodd" clip-rule="evenodd" d="M13.3097 18.6911C13.177 18.7066 13.2881 18.8509 13.177 18.8533C13.065 18.8556 13.0074 18.7727 12.9849 18.6869C12.9769 18.6625 13.0847 18.6081 13.1377 18.5678C13.1442 18.6527 13.2324 18.6489 13.3097 18.6911Z" fill="#E9ECF3"/>
<path id="Vector_8" fill-rule="evenodd" clip-rule="evenodd" d="M15.0656 18.43C14.8814 18.5491 15.03 18.28 14.9217 18.3063C14.9569 18.25 15.0563 18.2631 15.0628 18.1769C15.1097 18.2256 15.1495 18.2819 15.2241 18.2922C15.1177 18.2777 15.2334 18.5139 15.0656 18.43Z" fill="#EDEFF5"/>
<path id="Vector_9" fill-rule="evenodd" clip-rule="evenodd" d="M11.2594 15.2716C11.2153 15.3555 11.182 15.4492 11.0484 15.393C10.98 15.3644 11.0531 15.2706 10.9711 15.2617L11.123 15.1281C11.1333 15.1501 11.1455 15.1712 11.1558 15.1933C11.168 15.2491 11.2791 15.175 11.2594 15.2716Z" fill="#F0F2F6"/>
<path id="Vector_10" fill-rule="evenodd" clip-rule="evenodd" d="M11.6845 17.3083C11.6147 17.3303 11.6649 17.5141 11.5149 17.4339C11.4999 17.4264 11.4342 17.4625 11.4464 17.4414C11.4858 17.3645 11.3977 17.327 11.4113 17.2656C11.4933 17.3013 11.4886 17.1513 11.5725 17.1916C11.5786 17.1963 11.5786 17.215 11.5828 17.2272C11.5917 17.2853 11.7052 17.2127 11.6845 17.3083Z" fill="#ECEFF4"/>
<path id="Vector_11" fill-rule="evenodd" clip-rule="evenodd" d="M10.9472 17.8511C10.8033 17.9013 10.9106 17.7274 10.8281 17.7288C10.8666 17.6964 10.9097 17.636 10.9481 17.6383C10.9941 17.6407 11.0363 17.6974 11.0784 17.7297C11.0156 17.7508 11.0817 17.921 10.9472 17.8511Z" fill="#D9DFEA"/>
<path id="Vector_12" fill-rule="evenodd" clip-rule="evenodd" d="M16.5094 19.51C16.3571 19.5794 16.5052 19.3746 16.4035 19.4013C16.3931 19.323 16.5202 19.3703 16.5042 19.2878L16.6416 19.398C16.5858 19.4233 16.6416 19.5827 16.5094 19.51Z" fill="#D8DEEA"/>
<path id="Vector_13" fill-rule="evenodd" clip-rule="evenodd" d="M17.4844 19.397C17.3583 19.4495 17.4356 19.2799 17.3677 19.263C17.4136 19.2334 17.4619 19.202 17.5069 19.1716C17.5106 19.2409 17.6058 19.2156 17.6161 19.277C17.5453 19.2813 17.6189 19.4341 17.4844 19.397ZM18.361 18.7661C18.2175 18.8388 18.3235 18.648 18.2414 18.6559C18.2578 18.595 18.3521 18.618 18.3577 18.5477L18.4922 18.6484C18.4102 18.6461 18.511 18.8472 18.361 18.7661Z" fill="#DCE1EC"/>
<path id="Vector_14" fill-rule="evenodd" clip-rule="evenodd" d="M12.5545 17.8909C12.4045 17.9758 12.5025 17.7859 12.4331 17.7822C12.4402 17.7123 12.5461 17.7423 12.5508 17.6683C12.5649 17.7367 12.6558 17.717 12.6755 17.7784C12.5859 17.7653 12.7134 17.9805 12.5545 17.8909Z" fill="#D4DAE7"/>
<path id="Vector_15" fill-rule="evenodd" clip-rule="evenodd" d="M13.1625 16.4669C13.0777 16.4613 13.1864 16.3277 13.0824 16.3361C13.1002 16.2611 13.1803 16.2766 13.2244 16.2377C13.2469 16.285 13.3106 16.2958 13.3139 16.3638C13.3214 16.488 13.2113 16.4238 13.1625 16.4669Z" fill="#F2F4F7"/>
<path id="Vector_16" fill-rule="evenodd" clip-rule="evenodd" d="M15.6328 17.4569C15.503 17.5314 15.5714 17.365 15.5114 17.3467C15.5522 17.313 15.5916 17.2788 15.6328 17.2441C15.6356 17.3135 15.7683 17.298 15.7308 17.3514C15.7083 17.3833 15.7809 17.5291 15.6328 17.4569Z" fill="#E6E9F1"/>
<path id="Vector_17" fill-rule="evenodd" clip-rule="evenodd" d="M15.0516 17.0392C14.9035 17.0542 15.0563 16.9197 14.9602 16.923C14.9977 16.8878 15.0338 16.8278 15.076 16.8241C15.1125 16.8203 15.1547 16.8799 15.1945 16.9127C15.1425 16.9628 15.1505 17.0922 15.0516 17.0392Z" fill="#EAEDF3"/>
<path id="Vector_18" fill-rule="evenodd" clip-rule="evenodd" d="M18.6478 18.1333C18.6783 18.2139 18.7383 18.2247 18.7852 18.2533C18.7374 18.3072 18.7186 18.3897 18.6192 18.3897C18.5175 18.3906 18.5864 18.3133 18.5634 18.2772C18.5067 18.1872 18.7163 18.2631 18.6478 18.1333Z" fill="#E4E8F0"/>
<path id="Vector_19" fill-rule="evenodd" clip-rule="evenodd" d="M17.5866 19.7665C17.5509 19.8194 17.5753 19.87 17.4806 19.8719C17.3723 19.8738 17.407 19.7946 17.4023 19.7702C17.3934 19.7299 17.4553 19.6915 17.4909 19.6994C17.5219 19.705 17.5819 19.7224 17.5866 19.7665Z" fill="#CED5E4"/>
<path id="Vector_20" fill-rule="evenodd" clip-rule="evenodd" d="M12.5222 18.2646C12.4449 18.2735 12.5091 18.3747 12.4111 18.3714C12.3216 18.3686 12.3347 18.3082 12.3249 18.2716C12.3094 18.2205 12.3849 18.2219 12.4017 18.1835C12.4374 18.2083 12.4735 18.2332 12.5222 18.2646Z" fill="#DAE0EB"/>
<path id="Vector_21" fill-rule="evenodd" clip-rule="evenodd" d="M17.3766 18.7999C17.4099 18.775 17.4431 18.7521 17.4783 18.7286C17.4811 18.7807 17.5931 18.7507 17.5556 18.8172C17.5402 18.844 17.5781 18.9171 17.4811 18.9105C17.3939 18.9044 17.4146 18.8435 17.3766 18.7999Z" fill="#D8DEE9"/>
<path id="Vector_22" fill-rule="evenodd" clip-rule="evenodd" d="M17.0203 18.9607C17.0035 19.053 16.951 19.068 16.8933 19.0788C16.7953 19.0952 16.8689 19.0216 16.853 18.9935C16.8117 18.9232 16.9158 18.9367 16.928 18.8908C16.9552 18.9264 17.0175 18.9255 17.0203 18.9607Z" fill="#CBD2E3"/>
<path id="Vector_23" fill-rule="evenodd" clip-rule="evenodd" d="M16.4719 15.9208C16.4391 15.9363 16.4827 16.0145 16.4123 15.992C16.3589 15.9738 16.2933 15.9485 16.298 15.8828C16.2998 15.8575 16.3636 15.8364 16.3992 15.8144C16.4053 15.8617 16.5066 15.8463 16.4719 15.9208Z" fill="#D1D8E6"/>
<path id="Vector_24" fill-rule="evenodd" clip-rule="evenodd" d="M19.1245 17.9767C19.0364 18.0114 19.0763 17.9387 19.0608 17.9176C19.0017 17.8375 19.1185 17.8492 19.1245 17.8014C19.1606 17.8253 19.231 17.8525 19.2281 17.8731C19.2261 17.8999 19.2145 17.9251 19.1955 17.9441C19.1765 17.9631 19.1513 17.9747 19.1245 17.9767Z" fill="#DADFEA"/>
<path id="Vector_25" fill-rule="evenodd" clip-rule="evenodd" d="M14.5922 17.2614C14.5922 17.3158 14.7019 17.2942 14.6648 17.3622C14.6498 17.3899 14.6817 17.4639 14.6058 17.4484C14.5481 17.4367 14.49 17.403 14.4881 17.3458C14.4881 17.3191 14.5547 17.2905 14.5922 17.2614Z" fill="#CAD2E2"/>
<path id="Vector_26" fill-rule="evenodd" clip-rule="evenodd" d="M16.0922 18.9574C16.0491 18.9372 16.0472 18.8805 16.05 18.8533C16.0547 18.8172 16.103 18.7685 16.1442 18.7882C16.1695 18.8003 16.2413 18.7933 16.2239 18.8589C16.208 18.9217 16.1452 18.9307 16.0922 18.9574Z" fill="#D0D7E5"/>
<path id="Vector_27" fill-rule="evenodd" clip-rule="evenodd" d="M17.9062 18.8749C17.9081 18.8744 17.9409 18.829 17.978 18.828C18.0047 18.8271 18.0319 18.8824 18.0605 18.9133C18.022 18.9241 18.0548 18.9949 17.9789 18.994C17.9105 18.9925 17.9105 18.9616 17.9062 18.8749Z" fill="#EFF2F6"/>
<path id="Vector_28" fill-rule="evenodd" clip-rule="evenodd" d="M14.8903 17.688C14.8777 17.7386 14.8777 17.77 14.8327 17.7691C14.7867 17.7682 14.7642 17.7513 14.7652 17.7044C14.7652 17.6674 14.7895 17.6416 14.8172 17.6439C14.8491 17.6463 14.8945 17.6552 14.8903 17.688Z" fill="#CCD4E3"/>
<path id="Vector_29" fill-rule="evenodd" clip-rule="evenodd" d="M12.0159 16.9586C12.0384 16.983 12.0642 17.0022 12.0741 17.0271C12.0825 17.0477 12.0694 17.0791 12.0403 17.0824C12.008 17.0852 11.9733 17.0842 11.963 17.0439C11.9536 17.0046 11.9878 16.9905 12.0159 16.9586Z" fill="#E0E5EE"/>
<path id="Vector_30" fill-rule="evenodd" clip-rule="evenodd" d="M11.6845 17.3083C11.6719 17.2544 11.5884 17.2886 11.5828 17.2267C11.6006 17.2736 11.7399 17.1691 11.6845 17.3083Z" fill="#7085B1"/>
<path id="Vector_31" fill-rule="evenodd" clip-rule="evenodd" d="M11.2594 15.2716C11.2491 15.2139 11.1605 15.2594 11.1558 15.1933C11.1806 15.2327 11.3063 15.1394 11.2594 15.2716Z" fill="#5C75A7"/>
<path id="Vector_32" fill-rule="evenodd" clip-rule="evenodd" d="M16.4578 14.808C16.4667 14.7723 16.4953 14.7142 16.4841 14.7034C16.3312 14.5675 16.5352 14.5445 16.5656 14.5169C16.6214 14.463 16.6125 14.6903 16.7597 14.5464C16.6805 14.7222 16.5745 14.7728 16.4527 14.8028L16.4578 14.808Z" fill="#E7EAF2"/>
<path id="Vector_33" fill-rule="evenodd" clip-rule="evenodd" d="M11.9395 14.6622C11.7905 14.6477 11.9231 14.4536 11.8908 14.3411C11.8505 14.1958 11.9564 14.1977 12.0595 14.1972C12.2194 14.1963 12.3098 14.2638 12.3098 14.4325C12.3094 14.5985 12.2325 14.6641 11.9395 14.6622Z" fill="#15A24A"/>
<path id="Vector_34" fill-rule="evenodd" clip-rule="evenodd" d="M17.6348 15.5988C17.602 15.6991 17.4806 15.7619 17.46 15.8857C17.4581 15.9021 17.4113 15.8988 17.4023 15.851C17.3648 15.6269 17.363 15.6274 17.1975 15.7474C17.1844 15.7572 17.1614 15.7661 17.1488 15.7619C17.1244 15.7511 17.1145 15.7268 17.1291 15.6991C17.1839 15.5922 17.2355 15.4825 17.2969 15.3789C17.3381 15.3105 17.3883 15.3677 17.4286 15.3874C17.5172 15.431 17.6264 15.4558 17.6348 15.5988Z" fill="#13A248"/>
<path id="Vector_35" fill-rule="evenodd" clip-rule="evenodd" d="M18.0544 15.9635C17.9681 15.9981 17.9264 15.933 17.8711 15.9096C17.8336 15.8936 17.7985 15.8786 17.7731 15.9203C17.7455 15.9644 17.7731 15.9897 17.8111 16.0094C17.8402 16.0239 17.8711 16.0352 17.8927 16.0581C17.9306 16.098 18.0497 16.0872 18.0014 16.1721C17.9635 16.2396 17.8997 16.1608 17.8575 16.136C17.7849 16.0914 17.641 16.0671 17.6564 15.9897C17.6803 15.8655 17.7511 15.7305 17.8453 15.6452C17.9208 15.5767 18.0042 15.7061 18.0891 15.7385C18.1256 15.7521 18.188 15.7642 18.1772 15.8219C18.1669 15.8814 18.1228 15.8467 18.0891 15.8388C18.0099 15.8205 17.933 15.6864 17.8706 15.7792C17.8331 15.8346 17.9874 15.8575 18.0361 15.9185C18.0436 15.9274 18.0455 15.9396 18.0544 15.9635ZM19.0646 16.6263C19.0786 16.736 19.0341 16.8105 18.9192 16.7917C18.8002 16.7721 18.7097 16.6994 18.6891 16.5691C18.6872 16.556 18.7031 16.5292 18.7163 16.5255C18.7238 16.523 18.7318 16.5222 18.7397 16.5232C18.7476 16.5241 18.7552 16.5268 18.7619 16.531C18.7687 16.5352 18.7744 16.5408 18.7788 16.5475C18.7831 16.5542 18.7859 16.5617 18.7871 16.5696C18.8021 16.6591 18.8489 16.6989 18.9431 16.7008C18.9614 16.5541 18.6966 16.4871 18.8489 16.3347C18.9253 16.2583 19.0186 16.3216 19.0852 16.383C19.1466 16.4388 19.2216 16.5002 19.1096 16.5799C19.0936 16.5714 19.0721 16.5578 19.0603 16.5672C19.0364 16.5831 19.0599 16.6061 19.0646 16.6263Z" fill="#11A147"/>
<path id="Vector_36" fill-rule="evenodd" clip-rule="evenodd" d="M15.8269 15.2303C15.7711 15.1989 15.7739 15.1689 15.7828 15.1361C15.8006 15.0663 15.7646 15.0297 15.7008 15.01C15.6371 14.9894 15.5878 14.9922 15.5705 15.0719C15.5644 15.1075 15.5457 15.1323 15.5067 15.1192C15.4617 15.1028 15.4842 15.0663 15.4927 15.0395C15.5105 14.9781 15.5264 14.9163 15.5546 14.8577C15.5799 14.7991 15.5621 14.6917 15.6544 14.6988C15.7524 14.7058 15.8583 14.7292 15.9328 14.8103C15.9661 14.8459 15.9797 14.9073 15.9525 14.9341C15.8733 15.0156 15.8799 15.1309 15.8269 15.2303Z" fill="#0FA046"/>
<path id="Vector_37" fill-rule="evenodd" clip-rule="evenodd" d="M12.9342 14.6336C12.7828 14.6908 12.6633 14.6575 12.5466 14.6599C12.4936 14.6613 12.4889 14.6214 12.4889 14.5811C12.4927 14.5366 12.4927 14.4916 12.4927 14.4471C12.4983 14.2 12.586 14.1367 12.8288 14.2057C12.856 14.2132 12.8817 14.2178 12.8836 14.2483C12.8836 14.2905 12.8531 14.298 12.8156 14.2971C12.8105 14.2961 12.8044 14.2947 12.7978 14.2957C12.7252 14.3135 12.5949 14.2314 12.5925 14.3402C12.5897 14.4236 12.7317 14.3646 12.8044 14.3927C12.8147 14.3969 12.826 14.4063 12.8419 14.418C12.796 14.501 12.7195 14.4546 12.6605 14.4644C12.6253 14.47 12.5794 14.4546 12.5742 14.5117C12.5677 14.5792 12.6145 14.576 12.6605 14.5807C12.7388 14.59 12.8236 14.5605 12.9342 14.6336Z" fill="#0B9F43"/>
<path id="Vector_38" fill-rule="evenodd" clip-rule="evenodd" d="M11.6897 14.6692C11.6081 14.6514 11.6194 14.6045 11.6053 14.5717C11.5809 14.5112 11.5327 14.5112 11.4797 14.5155C11.4192 14.5211 11.3864 14.5445 11.3916 14.6115C11.3953 14.6444 11.4085 14.6973 11.3475 14.6898C11.295 14.6833 11.31 14.6322 11.3072 14.5975C11.3025 14.5408 11.2969 14.4826 11.3025 14.4264C11.31 14.3636 11.25 14.2675 11.3405 14.245C11.4338 14.2206 11.5416 14.2033 11.6386 14.2497C11.6808 14.2698 11.7141 14.3191 11.6986 14.3589C11.663 14.4592 11.6911 14.5609 11.6897 14.6692Z" fill="#079D3F"/>
<path id="Vector_39" fill-rule="evenodd" clip-rule="evenodd" d="M10.7002 14.5099C10.7152 14.3828 10.7709 14.2797 10.9102 14.2844C11.0438 14.2886 11.115 14.3814 11.115 14.515C11.115 14.6477 11.0531 14.7391 10.912 14.7381C10.7686 14.7372 10.7199 14.6331 10.7002 14.5099Z" fill="#15A24A"/>
<path id="Vector_40" fill-rule="evenodd" clip-rule="evenodd" d="M19.6238 16.8911C19.6106 17.0172 19.5483 17.1123 19.4044 17.125C19.2717 17.1358 19.2014 17.0598 19.1911 16.9351C19.1794 16.8091 19.3031 16.6886 19.4292 16.6895C19.5399 16.6905 19.621 16.7706 19.6238 16.8911Z" fill="#11A147"/>
<path id="Vector_41" fill-rule="evenodd" clip-rule="evenodd" d="M16.9922 15.4239C17.0981 15.5092 16.9697 15.5655 16.965 15.6372C16.8769 15.5964 16.7667 15.6128 16.6955 15.5355C16.6195 15.453 16.6336 15.3597 16.6833 15.2688C16.7381 15.1727 16.8225 15.1314 16.9261 15.168C17.0208 15.2017 17.0916 15.2655 17.0456 15.3855C16.973 15.3986 16.9134 15.303 16.8113 15.3672C16.8792 15.3986 16.9608 15.355 16.9922 15.4239Z" fill="#0C9F43"/>
<path id="Vector_42" fill-rule="evenodd" clip-rule="evenodd" d="M14.4422 14.4583C14.3803 14.531 14.3349 14.5028 14.2922 14.5038C14.2509 14.5038 14.2069 14.4696 14.1558 14.5122C14.2017 14.5872 14.3128 14.5389 14.3559 14.6135C14.3499 14.6243 14.347 14.6388 14.3391 14.6463C14.2772 14.695 14.1783 14.5769 14.1399 14.6744C14.1047 14.7583 14.197 14.7293 14.2369 14.7433C14.2819 14.7611 14.3377 14.7546 14.392 14.8155C14.2659 14.8708 14.1155 14.845 14.0634 14.7841C13.9814 14.688 14.0391 14.5174 14.1014 14.4321C14.175 14.3313 14.3095 14.4297 14.4422 14.4583Z" fill="#19A44D"/>
<path id="Vector_43" fill-rule="evenodd" clip-rule="evenodd" d="M15.2414 14.8661C15.135 14.8548 15.0141 14.7798 14.9836 14.9551C14.9827 14.9608 14.9456 14.9687 14.9344 14.9612C14.9217 14.9542 14.9147 14.928 14.917 14.913C14.9447 14.8019 14.9588 14.6828 15.008 14.583C15.0652 14.4705 15.1622 14.5656 15.2424 14.5764C15.338 14.5891 15.3909 14.6472 15.3806 14.748C15.3713 14.8347 15.3056 14.8581 15.2414 14.8661Z" fill="#0D9F44"/>
<path id="Vector_44" fill-rule="evenodd" clip-rule="evenodd" d="M16.5094 15.1347C16.4991 15.2758 16.4297 15.3733 16.2886 15.3775C16.1625 15.3822 16.0917 15.2936 16.0945 15.168C16.0983 15.032 16.1644 14.9336 16.3111 14.9294C16.4456 14.9247 16.4977 15.0152 16.5094 15.1347Z" fill="#0FA046"/>
<path id="Vector_45" fill-rule="evenodd" clip-rule="evenodd" d="M13.3495 14.6256C13.3341 14.6589 13.3214 14.7062 13.2769 14.6955C13.1995 14.6772 13.2342 14.6026 13.2155 14.5539C13.1583 14.4981 13.1733 14.575 13.1555 14.5891C13.1489 14.6237 13.1649 14.6767 13.118 14.6837C13.0603 14.6908 13.0739 14.6355 13.0753 14.6026C13.08 14.5342 13.0809 14.4625 13.0997 14.3969C13.1161 14.3406 13.0566 14.237 13.1686 14.2361C13.2675 14.2356 13.2459 14.3364 13.2586 14.3969C13.2717 14.4662 13.2788 14.4958 13.3355 14.4269C13.3941 14.4114 13.4063 14.4541 13.4199 14.4953C13.4274 14.5553 13.4006 14.597 13.3495 14.6256Z" fill="#0EA044"/>
<path id="Vector_46" fill-rule="evenodd" clip-rule="evenodd" d="M18.3422 16.3474C18.3769 16.3474 18.412 16.3933 18.4458 16.3539C18.4716 16.3244 18.4486 16.2953 18.4256 16.2714C18.4088 16.2531 18.3909 16.2358 18.375 16.2161C18.3272 16.1585 18.2602 16.1031 18.3263 16.0197C18.3863 15.9433 18.4561 15.9621 18.5255 16.0103C18.5381 16.0347 18.5339 16.0582 18.5208 16.0802C18.4697 16.1603 18.5648 16.2091 18.563 16.2775C18.5775 16.3417 18.5869 16.4064 18.5161 16.4435C18.428 16.4903 18.36 16.4472 18.2953 16.391C18.2883 16.3539 18.3019 16.3356 18.3422 16.3474Z" fill="#10A146"/>
<path id="Vector_47" fill-rule="evenodd" clip-rule="evenodd" d="M16.9922 15.4239C16.9561 15.4492 16.8835 15.3672 16.8858 15.4291C16.8905 15.5387 16.8356 15.5289 16.7846 15.4966C16.7156 15.4539 16.7119 15.3808 16.7555 15.3133C16.7977 15.2472 16.8572 15.2087 16.9294 15.2626C16.9735 15.295 17.0067 15.3437 17.0447 15.3855L16.9922 15.4239Z" fill="#ECF7F0"/>
<path id="Vector_48" fill-rule="evenodd" clip-rule="evenodd" d="M13.3805 14.5145C13.3668 14.4856 13.3518 14.4573 13.3355 14.4297C13.3519 14.388 13.3669 14.3458 13.3866 14.3055C13.4044 14.2675 13.4353 14.2464 13.4789 14.2605C13.5277 14.2769 13.5239 14.3144 13.5211 14.3538C13.5108 14.4686 13.5014 14.583 13.4925 14.6978C13.4241 14.7414 13.4067 14.7016 13.3955 14.6425C13.387 14.5999 13.4091 14.5539 13.3805 14.5145Z" fill="#17A34C"/>
<path id="Vector_49" fill-rule="evenodd" clip-rule="evenodd" d="M18.5644 16.2771C18.5222 16.2339 18.4772 16.1932 18.4378 16.1472C18.3919 16.0928 18.4097 16.0596 18.4781 16.0507C18.577 16.0727 18.6375 16.1205 18.6085 16.2339C18.5949 16.248 18.5799 16.263 18.5644 16.2771Z" fill="#D7EFE0"/>
<path id="Vector_50" fill-rule="evenodd" clip-rule="evenodd" d="M18.6085 16.234C18.563 16.1749 18.5508 16.0905 18.4781 16.0507L18.5269 16.0099C18.6056 16.0657 18.7496 16.0975 18.6085 16.234Z" fill="#2BAB5B"/>
<path id="Vector_51" fill-rule="evenodd" clip-rule="evenodd" d="M19.0645 16.6262C19.0584 16.6225 19.0505 16.6206 19.0477 16.6155C19.0102 16.5461 18.8859 16.4837 18.9281 16.4223C18.9811 16.3483 19.0364 16.4359 19.0655 16.4992C19.0786 16.5259 19.0945 16.5522 19.1095 16.5798C19.0941 16.5953 19.0786 16.6108 19.0645 16.6262Z" fill="#E6F5EC"/>
<path id="Vector_52" fill-rule="evenodd" clip-rule="evenodd" d="M18.3422 16.3474C18.3272 16.3619 18.3127 16.3769 18.2953 16.3914C18.2756 16.3774 18.2485 16.3675 18.2358 16.3474C18.2119 16.3019 18.1435 16.2414 18.2227 16.2058C18.2892 16.1739 18.2892 16.2588 18.3108 16.3C18.3197 16.3174 18.331 16.3319 18.3422 16.3474Z" fill="#29AA59"/>
<path id="Vector_53" fill-rule="evenodd" clip-rule="evenodd" d="M13.3805 14.5145C13.4489 14.5412 13.4128 14.5984 13.4137 14.6411C13.4175 14.6997 13.4381 14.7194 13.493 14.6987C13.3786 14.8094 13.3931 14.6617 13.3491 14.6289C13.3608 14.59 13.3697 14.552 13.3805 14.5145Z" fill="#DDF1E4"/>
<path id="Vector_54" fill-rule="evenodd" clip-rule="evenodd" d="M13.1531 14.5895V14.4386C13.2178 14.4592 13.2197 14.5047 13.2131 14.5544C13.1934 14.5661 13.1728 14.5773 13.1531 14.5895Z" fill="#6FC690"/>
<path id="Vector_55" fill-rule="evenodd" clip-rule="evenodd" d="M11.985 14.4349C11.9916 14.3664 11.9588 14.2774 12.0755 14.2849C12.1608 14.29 12.2227 14.3242 12.2274 14.4217C12.232 14.5267 12.1706 14.5694 12.0736 14.5764C11.9503 14.5863 12.0005 14.4892 11.985 14.4349Z" fill="#F5FBF7"/>
<path id="Vector_56" fill-rule="evenodd" clip-rule="evenodd" d="M17.3906 15.4661C17.4394 15.4928 17.5139 15.498 17.5298 15.5702C17.5378 15.6077 17.5055 15.6325 17.4722 15.6217C17.4103 15.603 17.3283 15.602 17.3198 15.5149C17.3175 15.4895 17.3447 15.4577 17.3906 15.4661Z" fill="#EFF8F3"/>
<path id="Vector_57" fill-rule="evenodd" clip-rule="evenodd" d="M15.8705 14.8895C15.8578 14.9383 15.8236 14.9551 15.7842 14.9406C15.7313 14.9214 15.6459 14.9425 15.645 14.8497C15.6431 14.8014 15.6759 14.7869 15.72 14.8014C15.7781 14.8201 15.8484 14.8178 15.8705 14.8895Z" fill="#DEF2E5"/>
<path id="Vector_58" fill-rule="evenodd" clip-rule="evenodd" d="M11.4914 14.3125C11.5374 14.3181 11.61 14.2938 11.6053 14.372C11.6006 14.4405 11.5313 14.4297 11.4816 14.4306C11.4417 14.432 11.3845 14.4527 11.3808 14.3809C11.378 14.2956 11.4445 14.3223 11.4914 14.3125Z" fill="#F3FAF5"/>
<path id="Vector_59" fill-rule="evenodd" clip-rule="evenodd" d="M10.8984 14.3777C10.9833 14.3833 11.0255 14.4339 11.0288 14.5136C11.0334 14.5849 10.9983 14.6458 10.9252 14.6524C10.8408 14.6603 10.8028 14.5961 10.7981 14.5178C10.7934 14.4457 10.8216 14.3932 10.8984 14.3777Z" fill="#F3FAF6"/>
<path id="Vector_60" fill-rule="evenodd" clip-rule="evenodd" d="M19.5305 16.9075C19.5183 16.9853 19.4714 17.0402 19.381 17.0402C19.3083 17.0392 19.2811 16.9862 19.2886 16.922C19.2956 16.8348 19.3477 16.7786 19.4363 16.78C19.5061 16.7819 19.5333 16.832 19.5305 16.9075Z" fill="#F9FCFA"/>
<path id="Vector_61" fill-rule="evenodd" clip-rule="evenodd" d="M15.1313 14.6355C15.1786 14.6646 15.2738 14.6346 15.2874 14.7283C15.2916 14.7639 15.2522 14.7822 15.2208 14.7752C15.1594 14.7616 15.0736 14.7836 15.0661 14.6847C15.0647 14.6542 15.0783 14.6214 15.1313 14.6355Z" fill="#E7F5EC"/>
<path id="Vector_62" fill-rule="evenodd" clip-rule="evenodd" d="M16.4157 15.1459C16.4067 15.227 16.3669 15.2838 16.2849 15.2838C16.2042 15.2847 16.1756 15.2284 16.1794 15.1544C16.186 15.0728 16.2324 15.0184 16.3116 15.0152C16.3903 15.0124 16.4157 15.0752 16.4157 15.1459Z" fill="#F5FBF7"/>
</g>
</g>
</svg>
