<svg width="116" height="82" viewBox="0 0 116 82" fill="none" xmlns="http://www.w3.org/2000/svg">
<rect width="116" height="82" fill="#1E1E1E"/>
<g id="Portfolio react">
<path d="M-1012 -195C-1012 -196.105 -1011.1 -197 -1010 -197H3305C3306.1 -197 3307 -196.105 3307 -195V1475C3307 1476.1 3306.1 1477 3305 1477H-1010C-1011.1 1477 -1012 1476.1 -1012 1475V-195Z" fill="#404040"/>
<g id="Home - Black" clip-path="url(#clip0_2059_1365)">
<rect width="1920" height="1324" transform="translate(-939 -25)" fill="white"/>
<g id="HEADER">
<rect width="1920" height="1080" transform="translate(-939 -25)" fill="url(#paint0_linear_2059_1365)"/>
<g id="navbar">
<g id="logo">
<g id="LOGO BRANCO 1">
<g id="b">
<g id="c">
<g id="Group">
<path id="Vector" d="M63.1278 75.219C64.7158 72.4548 66.1286 69.8359 67.7319 67.3394C68.0594 66.8309 69.1218 66.5441 69.8301 66.5709C75.1844 66.7659 80.2759 65.9783 85.0589 63.3441C94.1908 58.3166 99.6745 47.3324 98.0104 37.1091C96.1939 25.9683 88.0826 17.3851 77.5074 15.4926C75.8927 15.2021 74.2362 15.0147 72.5987 15.0071C62.5756 14.9612 52.5526 14.9803 42.5296 14.9842C42.0384 14.9842 41.5509 15.0606 40.7436 15.1256C41.7147 16.8422 42.5639 18.3715 43.4359 19.8893C48.1504 28.094 52.8497 36.3063 57.6098 44.488C58.1963 45.4973 58.2344 46.2428 57.6174 47.2369C56.178 49.5499 54.8604 51.9356 53.3371 54.566C44.0452 38.4243 34.8829 22.4968 25.5415 6.25956C26.3869 6.22133 26.981 6.17162 27.5712 6.17162C42.3544 6.1678 57.1338 6.11428 71.917 6.18309C88.9051 6.26338 102.641 17.3048 106.213 33.6147C110.65 53.8854 95.695 73.9077 75.0701 75.1846C71.2239 75.4217 67.3549 75.219 63.1278 75.219Z" fill="white"/>
<path id="Vector_2" d="M9.33398 6.18243C12.5519 6.18243 15.5222 6.11361 18.4773 6.24742C19.0219 6.27418 19.6921 7.035 20.031 7.61996C24.974 16.1381 29.8713 24.683 34.78 33.2202C40.6369 43.4091 46.4976 53.5942 52.3621 63.7792C52.6059 64.2036 52.9105 64.5936 53.2989 65.1632C57.1528 58.4535 60.9114 51.9119 64.67 45.3704C69.0722 37.7125 73.5201 30.0814 77.8462 22.3814C78.6269 20.9936 79.3771 20.7412 80.649 21.4868C82.5454 22.5955 84.4457 23.6966 86.4907 24.8856C83.9583 29.3014 81.5972 33.4229 79.2285 37.5405C72.2597 49.6562 65.2717 61.7606 58.3523 73.9031C57.6859 75.073 56.9395 75.4936 55.6486 75.4209C53.9425 75.3215 52.2098 75.5241 50.5152 75.3406C49.7269 75.2565 48.6682 74.7595 48.2989 74.121C35.3931 51.7858 22.552 29.42 9.69957 7.06177C9.60817 6.90119 9.55105 6.71385 9.33398 6.18625V6.18243Z" fill="white"/>
</g>
</g>
</g>
</g>
</g>
</g>
</g>
</g>
<path d="M-1010 -196H3305V-198H-1010V-196ZM3306 -195V1475H3308V-195H3306ZM3305 1476H-1010V1478H3305V1476ZM-1011 1475V-195H-1013V1475H-1011ZM-1010 1476C-1010.55 1476 -1011 1475.55 -1011 1475H-1013C-1013 1476.66 -1011.66 1478 -1010 1478V1476ZM3306 1475C3306 1475.55 3305.55 1476 3305 1476V1478C3306.66 1478 3308 1476.66 3308 1475H3306ZM3305 -196C3305.55 -196 3306 -195.552 3306 -195H3308C3308 -196.657 3306.66 -198 3305 -198V-196ZM-1010 -198C-1011.66 -198 -1013 -196.657 -1013 -195H-1011C-1011 -195.552 -1010.55 -196 -1010 -196V-198Z" fill="white" fill-opacity="0.1"/>
</g>
<defs>
<linearGradient id="paint0_linear_2059_1365" x1="960" y1="717.321" x2="960" y2="1080" gradientUnits="userSpaceOnUse">
<stop/>
<stop offset="1" stop-color="#116879"/>
</linearGradient>
<clipPath id="clip0_2059_1365">
<rect width="1920" height="1324" fill="white" transform="translate(-939 -25)"/>
</clipPath>
</defs>
</svg>
