<svg width="116" height="82" viewBox="0 0 116 82" fill="none" xmlns="http://www.w3.org/2000/svg">
<path d="M62.6224 75.6148C64.2104 72.8506 65.6232 70.2317 67.2264 67.7351C67.5539 67.2266 68.6164 66.9399 69.3247 66.9666C74.679 67.1616 79.7704 66.374 84.5535 63.7398C93.6854 58.7123 99.1691 47.7282 97.5049 37.5049C95.6885 26.364 87.5771 17.7809 77.0019 15.8884C75.3873 15.5978 73.7307 15.4105 72.0932 15.4028C62.0702 15.357 52.0472 15.3761 42.0242 15.3799C41.5329 15.3799 41.0455 15.4564 40.2382 15.5214C41.2092 17.238 42.0584 18.7673 42.9305 20.2851C47.645 28.4897 52.3442 36.702 57.1044 44.8837C57.6908 45.893 57.7289 46.6386 57.112 47.6326C55.6725 49.9457 54.3549 52.3313 52.8317 54.9617C43.5398 38.8201 34.3774 22.8925 25.0361 6.65531C25.8815 6.61708 26.4755 6.56738 27.0658 6.56738C41.849 6.56355 56.6284 6.51003 71.4116 6.57885C88.3997 6.65913 102.136 17.7006 105.708 34.0105C110.144 54.2812 95.1896 74.3034 74.5647 75.5804C70.7185 75.8174 66.8494 75.6148 62.6224 75.6148Z" fill="#202020"/>
<path d="M8.82849 6.57818C12.0464 6.57818 15.0167 6.50936 17.9718 6.64317C18.5164 6.66994 19.1866 7.43076 19.5255 8.01571C24.4685 16.5338 29.3658 25.0787 34.2745 33.616C40.1314 43.8049 45.9921 53.9899 51.8566 64.175C52.1004 64.5993 52.405 64.9893 52.7934 65.559C56.6473 58.8492 60.4059 52.3077 64.1645 45.7662C68.5667 38.1083 73.0147 30.4771 77.3407 22.7772C78.1214 21.3893 78.8716 21.137 80.1435 21.8825C82.0399 22.9913 83.9402 24.0923 85.9852 25.2814C83.4528 29.6972 81.0917 33.8186 78.7231 37.9362C71.7542 50.052 64.7662 62.1563 57.8468 74.2989C57.1804 75.4688 56.434 75.8893 55.1431 75.8167C53.437 75.7173 51.7043 75.9199 50.0097 75.7364C49.2214 75.6523 48.1627 75.1553 47.7934 74.5168C34.8876 52.1815 22.0465 29.8157 9.19407 7.45752C9.10268 7.29694 9.04556 7.10961 8.82849 6.582V6.57818Z" fill="#202020"/>
</svg>
